<?xml version="1.0" encoding="utf-8"?>
<svg viewBox="19.368 17.411 104.665 19.463" xmlns="http://www.w3.org/2000/svg">
  <path d="M 20.367 19.752 C 20.431 20.015 20.487 20.283 20.533 20.558 C 20.58 20.832 20.632 21.097 20.688 21.351 C 20.745 21.606 20.81 21.84 20.889 22.052 C 20.968 22.264 21.072 22.442 21.198 22.583 C 21.324 22.261 21.527 21.905 21.803 21.514 C 22.081 21.122 22.55 20.676 23.215 20.175 C 23.326 20.233 23.417 20.297 23.488 20.373 C 23.558 20.449 23.643 20.515 23.737 20.572 C 23.832 20.629 23.963 20.666 24.129 20.686 C 24.295 20.705 24.544 20.676 24.877 20.6 C 25.018 20.609 25.153 20.629 25.279 20.658 C 25.533 20.705 25.754 20.78 25.944 20.882 C 26.024 20.988 26.059 21.106 26.051 21.238 C 26.043 21.37 26.015 21.492 25.968 21.606 C 25.904 21.738 25.818 21.876 25.707 22.017 C 25.944 22.336 26.21 22.656 26.502 22.973 C 26.794 23.289 27 23.605 27.12 23.92 C 27.238 24.238 27.21 24.549 27.036 24.856 C 26.862 25.162 26.419 25.467 25.707 25.768 L 22.978 27.113 C 23.311 27.341 23.63 27.569 23.94 27.8 C 24.247 28.032 24.5 28.261 24.699 28.486 C 24.896 28.714 25.003 28.938 25.018 29.159 C 25.036 29.381 24.908 29.595 24.638 29.803 C 24.892 29.993 25.122 30.172 25.326 30.341 C 25.501 30.492 25.672 30.653 25.836 30.823 C 26.006 30.993 26.117 31.149 26.18 31.291 C 26.246 31.432 26.261 31.596 26.229 31.786 C 26.196 31.975 26.158 32.175 26.11 32.387 C 26.064 32.6 26.015 32.819 25.968 33.047 C 25.92 33.272 25.913 33.489 25.944 33.697 C 25.976 33.914 26.035 34.115 26.122 34.299 C 26.21 34.484 26.296 34.66 26.383 34.83 C 26.47 35 26.545 35.16 26.609 35.312 C 26.672 35.463 26.689 35.61 26.656 35.751 C 26.593 35.911 26.506 36.022 26.395 36.083 C 26.284 36.144 26.167 36.184 26.039 36.202 C 25.897 36.222 25.747 36.213 25.589 36.175 L 24.638 32.281 C 24.638 32.3 24.592 32.266 24.497 32.175 C 24.402 32.085 24.28 31.962 24.129 31.807 C 23.979 31.653 23.813 31.474 23.63 31.276 C 23.448 31.078 23.27 30.871 23.096 30.653 C 22.97 30.474 22.847 30.302 22.729 30.137 C 22.61 29.971 22.502 29.819 22.409 29.683 C 22.313 29.547 22.238 29.428 22.184 29.329 C 22.128 29.231 22.117 29.152 22.146 29.095 C 22.18 28.813 22.174 28.562 22.136 28.344 C 22.095 28.129 22.053 27.944 22.006 27.792 C 21.941 27.624 21.87 27.468 21.791 27.325 L 21.08 30.724 C 21.08 31.027 21.068 31.342 21.043 31.672 C 21.021 32.003 20.973 32.296 20.902 32.55 C 20.831 32.805 20.724 32.999 20.58 33.131 C 20.439 33.264 20.25 33.287 20.012 33.202 L 19.775 31.361 L 20.131 29.449 C 19.767 29.289 19.565 29.09 19.525 28.854 C 19.486 28.619 19.506 28.371 19.584 28.112 C 19.662 27.853 19.763 27.592 19.881 27.333 C 20 27.074 20.044 26.835 20.012 26.617 C 19.711 26.401 19.513 26.093 19.419 25.691 C 19.323 25.29 19.363 24.82 19.536 24.281 C 19.678 23.791 19.771 23.276 19.81 22.738 C 19.85 22.201 19.878 21.71 19.893 21.273 C 19.909 20.834 19.936 20.471 19.977 20.183 C 20.015 19.894 20.107 19.752 20.25 19.752 L 20.367 19.752 Z M 23.69 22.583 C 23.562 22.583 23.425 22.624 23.274 22.704 C 23.124 22.783 22.985 22.862 22.858 22.937 C 22.731 23.013 22.65 23.088 22.61 23.162 C 22.571 23.239 22.54 23.318 22.516 23.404 C 22.491 23.489 22.469 23.575 22.444 23.666 C 22.42 23.754 22.362 23.843 22.266 23.928 C 22.234 23.983 22.167 24.032 22.065 24.068 C 21.962 24.106 21.863 24.141 21.768 24.176 C 21.673 24.209 21.598 24.245 21.542 24.281 C 21.488 24.32 21.492 24.367 21.555 24.424 C 21.617 24.48 21.715 24.553 21.852 24.643 C 21.985 24.732 22.124 24.838 22.266 24.961 C 22.409 25.083 22.548 25.215 22.681 25.351 C 22.816 25.487 22.914 25.627 22.978 25.768 C 23.011 25.853 23.076 25.856 23.18 25.776 C 23.282 25.696 23.39 25.58 23.501 25.429 C 23.611 25.278 23.71 25.117 23.797 24.947 C 23.884 24.779 23.927 24.649 23.927 24.565 C 23.927 24.499 23.895 24.431 23.832 24.36 C 23.769 24.288 23.706 24.218 23.643 24.147 C 23.58 24.078 23.523 24.005 23.476 23.935 C 23.43 23.864 23.42 23.791 23.453 23.715 C 23.483 23.611 23.555 23.523 23.666 23.446 C 23.777 23.37 23.884 23.299 23.987 23.234 C 24.09 23.168 24.169 23.099 24.224 23.028 C 24.28 22.958 24.261 22.88 24.165 22.795 C 24.101 22.719 24.037 22.666 23.974 22.633 C 23.912 22.599 23.816 22.583 23.69 22.583 Z" style=""/>
  <path d="M 30.657 26.017 C 30.999 25.974 31.245 26.011 31.399 26.127 C 31.554 26.243 31.658 26.394 31.716 26.579 C 31.772 26.764 31.806 26.96 31.817 27.167 C 31.83 27.374 31.869 27.555 31.938 27.707 C 31.88 27.765 31.853 27.825 31.86 27.887 C 31.866 27.947 31.871 28.01 31.876 28.072 C 31.883 28.134 31.871 28.192 31.843 28.247 C 31.814 28.301 31.732 28.343 31.595 28.371 C 31.458 28.401 31.257 28.413 30.991 28.41 C 30.724 28.406 30.356 28.382 29.89 28.338 C 29.799 28.418 29.706 28.502 29.609 28.59 C 29.512 28.677 29.397 28.748 29.259 28.802 C 29.123 28.856 28.969 28.883 28.798 28.883 C 28.629 28.883 28.423 28.836 28.185 28.742 L 27.247 29.233 L 27.843 31.356 L 29.464 31.466 L 30.827 31.411 L 31.254 30.213 L 31.767 30.377 L 32.278 29.83 L 31.852 31.629 C 31.533 31.767 31.26 31.876 31.033 31.956 C 30.806 32.036 30.607 32.093 30.437 32.126 C 30.265 32.158 30.111 32.164 29.976 32.142 C 29.839 32.119 29.697 32.077 29.549 32.011 C 29.014 32.148 28.593 32.249 28.287 32.311 C 27.98 32.372 27.747 32.409 27.589 32.42 C 27.429 32.431 27.323 32.427 27.271 32.409 C 27.219 32.39 27.184 32.366 27.161 32.338 C 27.138 32.026 27.067 31.722 26.948 31.429 C 26.83 31.134 26.684 30.866 26.512 30.621 C 26.342 30.378 26.158 30.163 25.959 29.979 C 25.76 29.793 25.563 29.653 25.37 29.559 C 25.302 29.531 25.271 29.485 25.277 29.428 C 25.282 29.37 25.306 29.307 25.345 29.238 C 25.384 29.169 25.439 29.094 25.506 29.014 C 25.575 28.934 25.643 28.86 25.71 28.797 C 25.687 28.578 25.628 28.354 25.533 28.121 C 25.435 27.889 25.384 27.661 25.378 27.44 C 25.372 27.219 25.456 27.01 25.626 26.812 C 25.796 26.616 26.138 26.443 26.649 26.29 C 26.502 26.131 26.467 26.008 26.546 25.926 C 26.626 25.842 26.777 25.781 26.999 25.739 C 27.219 25.699 27.485 25.676 27.792 25.668 C 28.1 25.662 28.4 25.651 28.696 25.636 L 30.657 26.017 Z M 29.123 26.509 C 28.86 26.509 28.651 26.525 28.491 26.558 C 28.331 26.591 28.229 26.646 28.185 26.726 L 27.589 27.108 L 26.735 27.489 L 26.99 28.088 C 27.308 28.118 27.635 28.147 27.971 28.181 C 28.307 28.214 28.629 28.223 28.934 28.214 C 29.242 28.203 29.529 28.158 29.797 28.078 C 30.063 27.998 30.294 27.856 30.487 27.653 C 30.294 27.601 30.16 27.533 30.086 27.445 C 30.012 27.357 29.973 27.265 29.966 27.167 C 29.961 27.07 29.978 26.967 30.018 26.863 C 30.058 26.757 30.102 26.657 30.145 26.563 C 29.93 26.563 29.736 26.554 29.566 26.535 C 29.397 26.518 29.247 26.509 29.123 26.509 Z" style=""/>
  <path d="M 37.122 23.239 C 37.168 23.298 37.205 23.363 37.232 23.435 C 37.26 23.507 37.283 23.61 37.301 23.741 C 37.32 23.871 37.328 24.036 37.328 24.236 C 37.328 24.436 37.315 24.685 37.292 24.983 C 37.361 25.106 37.435 25.215 37.514 25.305 C 37.594 25.395 37.664 25.497 37.728 25.61 C 37.791 25.722 37.824 25.865 37.829 26.041 C 37.836 26.214 37.799 26.443 37.719 26.726 C 37.741 26.93 37.757 27.132 37.762 27.338 C 37.767 27.539 37.787 27.73 37.821 27.908 C 37.855 28.086 37.909 28.245 37.981 28.383 C 38.056 28.521 38.167 28.622 38.316 28.687 C 38.316 28.963 38.33 29.214 38.359 29.439 C 38.387 29.664 38.41 29.897 38.426 30.137 C 38.444 30.377 38.44 30.642 38.419 30.931 C 38.395 31.224 38.332 31.564 38.23 31.956 L 37.207 30.812 L 36.95 29.014 L 36.354 28.687 L 35.673 29.886 L 35.331 30.976 L 34.649 32.228 C 34.477 32.171 34.382 32.066 34.357 31.912 C 34.337 31.76 34.433 31.521 34.649 31.194 C 34.308 30.991 34.12 30.753 34.086 30.481 C 34.051 30.208 34.087 29.92 34.196 29.618 C 34.304 29.318 34.437 29.007 34.598 28.687 C 34.757 28.367 34.859 28.06 34.904 27.763 L 35.161 26.237 C 35.092 26.142 35.053 26.021 35.04 25.875 C 35.03 25.731 35.057 25.593 35.126 25.462 C 35.193 25.332 35.314 25.226 35.484 25.146 C 35.654 25.066 35.887 25.048 36.184 25.093 C 36.184 24.78 36.213 24.526 36.27 24.328 C 36.326 24.132 36.4 23.969 36.49 23.839 C 36.581 23.707 36.684 23.6 36.798 23.511 C 36.912 23.424 37.019 23.334 37.122 23.239 Z M 36.524 25.692 C 36.377 26.011 36.246 26.298 36.133 26.552 C 36.041 26.769 35.956 26.972 35.877 27.162 C 35.797 27.351 35.757 27.46 35.757 27.489 C 35.826 27.38 35.891 27.297 35.954 27.239 C 36.015 27.181 36.087 27.156 36.166 27.167 C 36.246 27.178 36.339 27.228 36.439 27.314 C 36.542 27.401 36.656 27.533 36.781 27.707 L 36.524 26.726 L 36.524 25.692 Z" style=""/>
  <path d="M 39.967 29.941 C 39.898 29.861 39.887 29.765 39.932 29.652 C 39.978 29.54 40.054 29.414 40.163 29.276 C 40.271 29.138 40.391 28.989 40.522 28.829 C 40.651 28.67 40.772 28.503 40.88 28.333 C 40.988 28.163 41.064 27.988 41.109 27.81 C 41.155 27.632 41.144 27.453 41.076 27.271 C 40.974 27.024 40.935 26.784 40.955 26.547 C 40.979 26.311 41.062 26.095 41.204 25.898 C 41.346 25.702 41.537 25.535 41.775 25.391 C 42.013 25.249 42.291 25.15 42.611 25.093 C 42.633 24.903 42.702 24.731 42.814 24.574 C 42.928 24.417 43.066 24.286 43.225 24.176 C 43.384 24.067 43.556 23.983 43.737 23.925 C 43.919 23.866 44.084 23.839 44.231 23.839 C 44.323 23.839 44.415 23.864 44.512 23.915 C 44.609 23.966 44.658 24.032 44.658 24.112 C 44.954 24.126 45.233 24.153 45.494 24.188 C 45.721 24.223 45.934 24.269 46.134 24.324 C 46.332 24.378 46.466 24.452 46.535 24.546 C 46.613 24.735 46.576 24.867 46.423 24.94 C 46.27 25.013 46.059 25.063 45.791 25.093 C 45.524 25.12 45.238 25.145 44.931 25.162 C 44.624 25.181 44.362 25.23 44.145 25.309 C 44.056 25.323 44.001 25.355 43.983 25.403 C 43.967 25.45 43.96 25.506 43.96 25.571 C 43.96 25.636 43.96 25.705 43.96 25.778 C 43.96 25.851 43.936 25.913 43.891 25.964 C 43.833 26.116 43.737 26.255 43.599 26.382 C 43.464 26.512 43.318 26.632 43.166 26.748 C 43.013 26.864 42.87 26.981 42.74 27.097 C 42.608 27.213 42.515 27.339 42.458 27.473 C 42.4 27.608 42.398 27.755 42.449 27.913 C 42.502 28.073 42.639 28.26 42.868 28.47 C 42.628 28.797 42.446 29.078 42.32 29.314 C 42.195 29.549 42.114 29.746 42.074 29.903 C 42.034 30.059 42.025 30.178 42.048 30.263 C 42.071 30.345 42.117 30.403 42.185 30.43 C 42.332 30.496 42.451 30.513 42.543 30.481 C 42.634 30.447 42.725 30.396 42.814 30.323 C 42.906 30.25 43.013 30.169 43.131 30.082 C 43.251 29.995 43.42 29.93 43.634 29.886 L 44.487 29.778 C 44.591 29.771 44.663 29.795 44.708 29.854 C 44.754 29.913 44.792 29.977 44.82 30.051 C 44.848 30.123 44.885 30.195 44.931 30.268 C 44.976 30.34 45.05 30.383 45.153 30.399 C 45.255 30.413 45.394 30.386 45.572 30.323 C 45.746 30.257 45.982 30.131 46.279 29.941 C 46.358 29.875 46.417 29.907 46.457 30.033 C 46.497 30.161 46.483 30.317 46.414 30.501 C 46.346 30.688 46.209 30.862 46.005 31.03 C 45.801 31.198 45.494 31.287 45.084 31.303 C 44.913 31.318 44.78 31.371 44.683 31.462 C 44.587 31.551 44.487 31.631 44.385 31.7 C 44.282 31.769 44.157 31.801 44.01 31.793 C 43.861 31.786 43.651 31.695 43.379 31.521 C 43.31 31.477 43.244 31.492 43.183 31.569 C 43.12 31.646 43.064 31.756 43.013 31.901 C 42.961 32.047 42.906 32.208 42.849 32.381 C 42.794 32.556 42.731 32.718 42.663 32.865 C 42.594 33.014 42.522 33.135 42.449 33.226 C 42.375 33.317 42.286 33.347 42.185 33.319 C 42.117 33.305 42.071 33.265 42.048 33.198 C 42.025 33.133 42.002 33.053 41.98 32.96 C 41.958 32.864 41.918 32.767 41.86 32.664 C 41.804 32.564 41.712 32.473 41.588 32.392 C 41.395 32.255 41.282 32.111 41.256 31.961 C 41.227 31.813 41.227 31.676 41.256 31.553 C 41.282 31.431 41.308 31.325 41.332 31.238 C 41.354 31.15 41.327 31.1 41.246 31.085 C 41.133 31.071 41.007 31.071 40.871 31.085 C 40.735 31.1 40.613 31.108 40.505 31.108 C 40.396 31.108 40.311 31.091 40.248 31.057 C 40.186 31.026 40.169 30.949 40.197 30.829 C 40.227 30.71 40.315 30.536 40.462 30.31 C 40.609 30.086 40.843 29.782 41.161 29.396 C 41.23 29.345 41.216 29.354 41.119 29.423 C 41.022 29.493 40.9 29.575 40.752 29.668 C 40.604 29.762 40.453 29.846 40.299 29.919 C 40.147 29.991 40.036 29.999 39.967 29.941 Z" style=""/>
  <path d="M 50.217 21.35 C 50.411 21.474 50.485 21.626 50.44 21.809 C 50.393 21.991 50.308 22.182 50.183 22.386 C 50.058 22.589 49.936 22.796 49.818 23.007 C 49.698 23.218 49.66 23.41 49.705 23.583 C 49.728 23.664 49.762 23.72 49.808 23.753 C 49.853 23.786 49.904 23.812 49.961 23.829 C 50.019 23.849 50.07 23.874 50.115 23.906 C 50.161 23.939 50.194 23.995 50.217 24.075 C 50.24 24.156 50.223 24.247 50.166 24.352 C 50.11 24.458 50.05 24.569 49.987 24.684 C 49.924 24.802 49.873 24.919 49.833 25.039 C 49.793 25.159 49.809 25.274 49.876 25.382 C 49.956 25.535 49.968 25.7 49.91 25.878 C 49.853 26.056 49.777 26.225 49.68 26.385 C 49.584 26.546 49.496 26.683 49.417 26.799 C 49.337 26.915 49.319 26.988 49.364 27.018 C 49.468 27.075 49.581 27.095 49.705 27.077 C 49.83 27.059 49.947 27.031 50.055 26.995 C 50.164 26.959 50.262 26.922 50.354 26.886 C 50.445 26.849 50.513 26.839 50.559 26.853 C 50.615 26.896 50.652 26.944 50.669 26.995 C 50.687 27.045 50.684 27.093 50.659 27.138 C 50.639 27.188 50.604 27.238 50.559 27.289 C 50.513 27.37 50.538 27.4 50.636 27.383 C 50.732 27.363 50.869 27.345 51.044 27.321 C 51.22 27.3 51.424 27.298 51.65 27.311 C 51.878 27.325 52.11 27.41 52.349 27.562 C 52.567 27.7 52.762 27.799 52.939 27.861 C 53.115 27.924 53.239 27.978 53.314 28.025 C 53.388 28.072 53.394 28.127 53.33 28.188 C 53.268 28.251 53.112 28.35 52.861 28.488 C 52.907 28.721 52.884 28.877 52.793 28.957 C 52.702 29.037 52.574 29.064 52.409 29.038 C 52.246 29.013 52.057 28.95 51.846 28.847 C 51.636 28.746 51.435 28.625 51.24 28.488 C 51.081 28.655 50.897 28.728 50.687 28.706 C 50.476 28.684 50.274 28.63 50.081 28.543 C 49.853 28.441 49.615 28.296 49.364 28.107 C 49.422 28.455 49.445 28.774 49.433 29.065 C 49.422 29.319 49.382 29.561 49.314 29.79 C 49.245 30.019 49.12 30.166 48.937 30.231 C 48.937 30.369 48.958 30.501 48.998 30.628 C 49.038 30.756 49.074 30.878 49.109 30.989 C 49.143 31.103 49.157 31.205 49.15 31.3 C 49.146 31.394 49.104 31.474 49.024 31.539 C 48.863 31.713 48.757 31.859 48.699 31.975 C 48.643 32.091 48.609 32.197 48.597 32.291 C 48.585 32.386 48.582 32.481 48.587 32.574 C 48.593 32.668 48.576 32.775 48.537 32.897 C 48.498 33.015 48.426 33.157 48.324 33.32 C 48.221 33.484 48.057 33.689 47.828 33.937 C 47.704 33.821 47.62 33.731 47.573 33.669 C 47.528 33.607 47.509 33.557 47.514 33.517 C 47.519 33.477 47.54 33.437 47.573 33.397 C 47.609 33.357 47.648 33.302 47.693 33.228 C 47.738 33.155 47.776 33.055 47.805 32.928 C 47.832 32.801 47.84 32.629 47.828 32.411 C 47.828 32.287 47.84 32.158 47.863 32.025 C 47.887 31.89 47.907 31.757 47.925 31.626 C 47.94 31.495 47.947 31.367 47.94 31.24 C 47.936 31.113 47.897 30.994 47.828 30.886 C 47.761 30.776 47.696 30.673 47.632 30.574 C 47.572 30.477 47.537 30.376 47.531 30.275 C 47.525 30.173 47.553 30.066 47.616 29.954 C 47.678 29.841 47.807 29.715 47.999 29.578 C 48.102 29.498 48.173 29.408 48.213 29.311 C 48.253 29.212 48.272 29.103 48.272 28.984 C 48.272 28.865 48.261 28.732 48.24 28.586 C 48.217 28.441 48.194 28.281 48.171 28.107 C 48.148 28.063 48.081 28.039 47.966 28.029 C 47.853 28.023 47.727 28.014 47.59 28.003 C 47.455 27.992 47.32 27.972 47.19 27.943 C 47.059 27.914 46.959 27.86 46.891 27.78 C 46.869 27.729 46.797 27.689 46.678 27.66 C 46.559 27.631 46.436 27.608 46.312 27.588 C 46.186 27.571 46.077 27.55 45.98 27.523 C 45.883 27.499 45.846 27.456 45.867 27.397 C 45.867 27.317 45.91 27.227 45.996 27.125 C 46.081 27.025 46.209 26.988 46.378 27.018 C 46.528 27.061 46.639 27.079 46.712 27.072 C 46.786 27.065 46.846 27.044 46.891 27.012 C 46.937 26.979 46.974 26.943 47.002 26.903 C 47.032 26.863 47.078 26.828 47.147 26.799 C 47.272 26.77 47.429 26.747 47.616 26.729 C 47.805 26.709 47.96 26.661 48.086 26.581 C 48.165 26.516 48.188 26.486 48.154 26.494 C 48.121 26.5 48.076 26.512 48.025 26.521 C 47.974 26.532 47.94 26.525 47.925 26.499 C 47.907 26.474 47.96 26.393 48.086 26.254 C 48.132 26.117 48.168 25.968 48.198 25.807 C 48.225 25.648 48.259 25.475 48.298 25.29 C 48.339 25.105 48.395 24.911 48.469 24.707 C 48.542 24.504 48.643 24.293 48.768 24.075 C 48.768 23.705 48.842 23.355 48.99 23.029 C 49.136 22.703 49.303 22.41 49.484 22.158 C 49.688 21.866 49.934 21.598 50.217 21.35 Z" style=""/>
  <path d="M 60.737 23.943 C 60.783 24 60.819 24.065 60.848 24.139 C 60.875 24.211 60.899 24.314 60.915 24.445 C 60.933 24.574 60.942 24.74 60.942 24.94 C 60.942 25.14 60.931 25.387 60.908 25.687 C 60.977 25.811 61.051 25.917 61.129 26.008 C 61.209 26.099 61.281 26.201 61.341 26.313 C 61.406 26.425 61.441 26.568 61.445 26.745 C 61.452 26.918 61.414 27.147 61.334 27.43 C 61.357 27.634 61.372 27.836 61.376 28.04 C 61.383 28.244 61.403 28.434 61.438 28.612 C 61.471 28.789 61.525 28.949 61.599 29.087 C 61.673 29.225 61.782 29.326 61.931 29.391 C 61.931 29.667 61.946 29.918 61.974 30.143 C 62.003 30.368 62.026 30.602 62.041 30.84 C 62.057 31.079 62.056 31.345 62.034 31.635 C 62.011 31.928 61.948 32.268 61.845 32.66 L 60.823 31.516 L 60.566 29.718 L 59.969 29.391 L 59.286 30.59 L 58.947 31.679 L 58.264 32.932 C 58.093 32.874 57.996 32.77 57.973 32.617 C 57.952 32.463 58.048 32.225 58.264 31.898 C 57.923 31.694 57.735 31.457 57.701 31.184 C 57.667 30.912 57.704 30.624 57.812 30.323 C 57.92 30.021 58.053 29.711 58.212 29.391 C 58.372 29.072 58.475 28.763 58.52 28.464 L 58.775 26.941 C 58.707 26.844 58.667 26.725 58.655 26.58 C 58.644 26.436 58.673 26.296 58.741 26.166 C 58.81 26.036 58.929 25.93 59.1 25.85 C 59.269 25.77 59.504 25.752 59.8 25.794 C 59.8 25.483 59.828 25.228 59.884 25.032 C 59.94 24.836 60.015 24.672 60.106 24.543 C 60.198 24.411 60.3 24.303 60.415 24.216 C 60.527 24.128 60.635 24.038 60.737 23.943 Z M 60.141 26.395 C 59.993 26.714 59.862 27.001 59.749 27.256 C 59.657 27.473 59.572 27.676 59.492 27.865 C 59.412 28.055 59.373 28.164 59.373 28.192 C 59.441 28.084 59.507 28 59.568 27.942 C 59.631 27.884 59.702 27.86 59.782 27.87 C 59.862 27.882 59.953 27.931 60.055 28.018 C 60.157 28.106 60.271 28.235 60.396 28.411 L 60.141 27.43 L 60.141 26.395 Z" style=""/>
  <path d="M 68.074 24.224 C 68.248 24.326 68.385 24.444 68.483 24.577 C 68.581 24.711 68.674 24.847 68.757 24.987 C 68.817 25.044 68.839 25.105 68.826 25.166 C 68.81 25.227 68.787 25.289 68.757 25.347 C 68.81 25.527 68.862 25.713 68.912 25.9 C 68.96 26.088 68.988 26.259 68.995 26.417 C 69.004 26.575 68.982 26.708 68.934 26.82 C 68.884 26.927 68.787 26.999 68.642 27.03 C 68.529 27.051 68.475 27.103 68.477 27.183 C 68.482 27.263 68.509 27.355 68.557 27.46 C 68.607 27.563 68.661 27.671 68.723 27.785 C 68.783 27.897 68.814 27.992 68.814 28.073 C 68.829 28.197 68.805 28.313 68.741 28.422 C 68.676 28.532 68.603 28.642 68.523 28.755 C 68.444 28.867 68.367 28.98 68.294 29.092 C 68.223 29.203 68.186 29.318 68.186 29.437 C 68.186 29.576 68.206 29.731 68.244 29.901 C 68.282 30.071 68.322 30.245 68.363 30.419 C 68.406 30.592 68.436 30.765 68.455 30.936 C 68.475 31.107 68.461 31.262 68.415 31.401 C 68.385 31.481 68.31 31.55 68.186 31.605 C 68.065 31.661 67.933 31.66 67.788 31.601 C 67.704 31.57 67.653 31.595 67.634 31.677 C 67.616 31.761 67.608 31.863 67.612 31.984 C 67.616 32.102 67.62 32.225 67.623 32.347 C 67.627 32.471 67.606 32.556 67.56 32.604 C 67.417 32.624 67.306 32.598 67.23 32.52 C 67.155 32.443 67.133 32.364 67.161 32.284 C 67.184 32.129 67.153 31.979 67.071 31.837 C 66.987 31.697 66.882 31.561 66.756 31.434 C 66.631 31.305 66.502 31.186 66.365 31.072 C 66.228 30.96 66.107 30.856 66.004 30.764 C 65.901 30.671 65.836 30.585 65.805 30.51 C 65.774 30.436 65.809 30.372 65.907 30.32 C 66.037 30.248 66.084 30.163 66.05 30.058 C 66.016 29.953 65.947 29.845 65.845 29.73 C 65.742 29.614 65.627 29.5 65.498 29.385 C 65.368 29.27 65.276 29.167 65.224 29.076 C 65.08 29.017 64.941 28.947 64.808 28.864 C 64.674 28.779 64.558 28.679 64.461 28.559 C 64.362 28.438 64.292 28.295 64.249 28.129 C 64.207 27.964 64.209 27.772 64.255 27.552 C 64.195 27.872 64.133 28.2 64.072 28.535 C 64.013 28.869 63.997 29.196 64.027 29.517 C 64.027 29.565 64.037 29.591 64.056 29.593 C 64.076 29.596 64.098 29.588 64.124 29.574 C 64.152 29.557 64.18 29.537 64.215 29.513 C 64.249 29.489 64.283 29.476 64.312 29.476 C 64.365 29.498 64.401 29.524 64.421 29.557 C 64.439 29.588 64.449 29.622 64.449 29.661 C 64.449 29.698 64.444 29.736 64.438 29.773 C 64.431 29.811 64.427 29.846 64.427 29.878 C 64.342 30.198 64.243 30.5 64.129 30.782 C 64.017 31.067 63.943 31.341 63.914 31.601 C 63.883 32.002 63.84 32.28 63.782 32.437 C 63.725 32.589 63.665 32.672 63.601 32.681 C 63.536 32.688 63.474 32.647 63.417 32.556 C 63.361 32.465 63.317 32.375 63.286 32.284 C 63.257 32.214 63.255 32.115 63.281 31.991 C 63.307 31.865 63.34 31.733 63.376 31.594 C 63.416 31.453 63.452 31.316 63.486 31.181 C 63.521 31.045 63.53 30.93 63.514 30.84 C 63.484 30.712 63.434 30.564 63.366 30.399 C 63.297 30.231 63.227 30.075 63.154 29.926 C 63.084 29.776 63.02 29.645 62.968 29.534 C 62.915 29.421 62.888 29.35 62.888 29.316 C 62.858 29.258 62.876 29.204 62.944 29.159 C 63.013 29.115 63.089 29.112 63.174 29.156 C 63.203 29.178 63.228 29.196 63.252 29.215 C 63.274 29.236 63.286 29.215 63.286 29.156 C 63.317 29.027 63.33 28.912 63.327 28.811 C 63.324 28.709 63.314 28.61 63.303 28.514 C 63.292 28.418 63.283 28.32 63.274 28.217 C 63.267 28.117 63.271 28.002 63.286 27.872 C 63.317 27.851 63.354 27.839 63.401 27.836 C 63.446 27.833 63.484 27.832 63.514 27.832 C 63.514 27.699 63.486 27.555 63.429 27.399 C 63.371 27.245 63.307 27.087 63.234 26.931 C 63.163 26.773 63.099 26.616 63.042 26.461 C 62.985 26.306 62.956 26.161 62.956 26.024 C 62.956 25.888 62.996 25.766 63.076 25.655 C 63.154 25.546 63.301 25.456 63.514 25.386 C 63.506 25.109 63.509 24.895 63.526 24.745 C 63.541 24.596 63.567 24.497 63.606 24.448 C 63.644 24.4 63.69 24.393 63.742 24.425 C 63.795 24.457 63.852 24.511 63.914 24.585 C 63.974 24.66 64.038 24.749 64.107 24.853 C 64.175 24.957 64.244 25.056 64.312 25.147 C 64.541 25.589 64.758 26.025 64.968 26.454 C 65.177 26.88 65.339 27.326 65.452 27.792 C 65.505 27.952 65.625 28.105 65.811 28.25 C 65.997 28.395 66.193 28.537 66.398 28.679 C 66.604 28.82 66.787 28.966 66.95 29.116 C 67.113 29.265 67.203 29.426 67.219 29.597 C 67.249 29.447 67.313 29.311 67.412 29.187 C 67.511 29.065 67.594 28.935 67.662 28.798 C 67.731 28.663 67.755 28.506 67.737 28.33 C 67.718 28.153 67.603 27.934 67.39 27.671 C 67.345 27.625 67.334 27.575 67.354 27.523 C 67.377 27.473 67.416 27.425 67.468 27.379 C 67.523 27.334 67.583 27.293 67.651 27.256 C 67.72 27.218 67.784 27.183 67.846 27.151 C 67.632 26.702 67.511 26.343 67.48 26.076 C 67.45 25.809 67.475 25.621 67.554 25.511 C 67.634 25.402 67.754 25.368 67.914 25.407 C 68.074 25.448 68.241 25.547 68.415 25.708 C 68.43 25.595 68.417 25.489 68.375 25.386 C 68.333 25.285 68.282 25.185 68.22 25.086 C 68.16 24.987 68.099 24.886 68.038 24.786 C 67.978 24.683 67.933 24.577 67.902 24.465 C 67.872 24.421 67.858 24.371 67.862 24.313 C 67.866 24.253 67.898 24.224 67.961 24.224 L 68.074 24.224 Z" style=""/>
  <path d="M 74.88 22.594 C 74.995 22.594 75.052 22.613 75.052 22.649 L 75.307 24.065 L 74.967 25.537 C 75.24 25.646 75.4 25.787 75.445 25.962 C 75.489 26.136 75.485 26.322 75.427 26.518 C 75.371 26.714 75.295 26.913 75.196 27.117 C 75.1 27.32 75.052 27.503 75.052 27.661 C 75.314 27.851 75.468 28.102 75.511 28.414 C 75.558 28.727 75.517 29.075 75.393 29.46 C 75.291 29.846 75.226 30.243 75.196 30.658 C 75.169 31.073 75.148 31.453 75.137 31.802 C 75.126 32.151 75.106 32.438 75.077 32.662 C 75.05 32.888 74.983 33.001 74.88 33.001 C 74.86 33.001 74.842 32.997 74.831 32.99 C 74.808 32.976 74.796 32.962 74.796 32.947 C 74.751 32.757 74.706 32.594 74.66 32.456 C 74.615 32.319 74.564 32.194 74.507 32.087 C 74.449 31.977 74.381 31.875 74.303 31.781 C 74.223 31.686 74.13 31.585 74.029 31.475 C 73.983 31.658 73.944 31.801 73.91 31.906 C 73.876 32.011 73.827 32.09 73.764 32.141 C 73.701 32.19 73.622 32.224 73.526 32.238 C 73.428 32.253 73.295 32.262 73.125 32.266 C 72.955 32.27 72.74 32.274 72.485 32.283 C 72.229 32.289 71.919 32.311 71.556 32.347 C 71.464 32.34 71.374 32.322 71.282 32.293 C 71.202 32.272 71.126 32.244 71.052 32.211 C 70.978 32.178 70.919 32.134 70.873 32.075 C 70.782 32.01 70.737 31.928 70.737 31.829 C 70.737 31.732 70.753 31.635 70.787 31.542 C 70.833 31.433 70.891 31.319 70.959 31.203 C 70.787 30.97 70.596 30.736 70.379 30.5 C 70.162 30.264 70.012 30.026 69.927 29.787 C 69.842 29.547 69.865 29.31 69.995 29.073 C 70.126 28.836 70.447 28.604 70.959 28.37 C 71.107 28.261 71.211 28.129 71.275 27.973 C 71.336 27.816 71.418 27.672 71.522 27.542 C 71.623 27.412 71.775 27.315 71.973 27.253 C 72.171 27.19 72.49 27.2 72.92 27.28 L 73.858 27.171 L 74.284 24.556 C 74.307 24.337 74.329 24.113 74.353 23.882 C 74.375 23.648 74.41 23.437 74.455 23.249 C 74.501 23.059 74.557 22.904 74.626 22.781 C 74.695 22.657 74.78 22.594 74.88 22.594 Z M 72.92 28.316 C 72.874 28.316 72.818 28.358 72.749 28.44 C 72.681 28.525 72.613 28.619 72.545 28.73 C 72.476 28.839 72.414 28.947 72.358 29.056 C 72.301 29.166 72.262 29.246 72.237 29.297 C 72.237 29.354 72.209 29.397 72.153 29.428 C 72.095 29.456 72.032 29.484 71.964 29.514 C 71.896 29.542 71.832 29.575 71.768 29.607 C 71.707 29.639 71.665 29.68 71.642 29.732 C 71.596 29.898 71.623 30.053 71.725 30.195 C 71.828 30.338 71.942 30.492 72.068 30.658 C 72.158 30.717 72.227 30.749 72.273 30.757 C 72.317 30.764 72.363 30.768 72.409 30.768 C 72.533 30.768 72.648 30.741 72.749 30.69 C 72.852 30.639 72.967 30.575 73.09 30.494 C 73.17 30.444 73.245 30.409 73.313 30.391 C 73.381 30.372 73.446 30.362 73.509 30.358 C 73.57 30.356 73.627 30.346 73.68 30.332 C 73.731 30.316 73.79 30.281 73.858 30.222 C 73.881 30.178 73.908 30.122 73.936 30.048 C 73.964 29.976 73.989 29.897 74.011 29.813 C 74.035 29.731 74.048 29.654 74.053 29.58 C 74.059 29.507 74.051 29.448 74.029 29.404 C 73.96 29.362 73.875 29.305 73.772 29.237 C 73.672 29.167 73.565 29.086 73.457 28.991 C 73.348 28.896 73.253 28.797 73.169 28.692 C 73.083 28.588 73.029 28.479 73.006 28.37 L 72.92 28.316 Z" style=""/>
  <path d="M 93.098 17.411 C 93.16 17.647 93.136 17.957 93.029 18.346 C 92.921 18.733 92.814 19.127 92.707 19.524 C 92.599 19.923 92.538 20.292 92.522 20.636 C 92.507 20.98 92.614 21.225 92.844 21.372 C 92.938 21.716 92.99 22.054 93.006 22.388 C 93.022 22.721 93.022 23.06 93.006 23.404 C 92.99 23.747 92.971 24.091 92.949 24.435 C 92.924 24.779 92.93 25.127 92.96 25.48 C 92.96 25.44 93.022 25.423 93.145 25.428 C 93.267 25.433 93.327 25.471 93.327 25.539 C 93.36 25.766 93.367 26.035 93.351 26.349 C 93.337 26.665 93.321 26.99 93.306 27.327 C 93.291 27.666 93.287 27.992 93.294 28.308 C 93.303 28.622 93.351 28.887 93.443 29.102 C 93.443 29.21 93.466 29.247 93.514 29.213 C 93.56 29.179 93.613 29.142 93.674 29.102 C 93.859 29.035 94.02 29.036 94.159 29.11 C 94.296 29.184 94.335 29.273 94.274 29.382 C 94.243 29.667 94.189 29.897 94.113 30.074 C 94.035 30.252 93.946 30.42 93.848 30.581 C 93.747 30.745 93.652 30.916 93.56 31.097 C 93.466 31.279 93.39 31.513 93.327 31.797 C 93.39 31.728 93.509 31.683 93.686 31.665 C 93.862 31.645 93.982 31.688 94.044 31.797 C 94.136 31.935 94.193 32.077 94.216 32.225 C 94.239 32.371 94.251 32.524 94.251 32.681 C 94.251 32.837 94.246 32.995 94.239 33.152 C 94.231 33.31 94.243 33.462 94.274 33.608 C 94.335 33.952 94.37 34.313 94.377 34.692 C 94.386 35.069 94.512 35.429 94.759 35.772 C 94.819 35.941 94.846 36.118 94.839 36.311 C 94.831 36.502 94.681 36.632 94.389 36.701 C 94.266 36.721 94.174 36.715 94.113 36.686 C 94.051 36.657 94.009 36.617 93.986 36.569 C 93.963 36.518 93.946 36.462 93.94 36.398 C 93.931 36.335 93.928 36.278 93.928 36.23 C 93.896 36.269 93.87 36.316 93.848 36.37 C 93.824 36.422 93.793 36.472 93.754 36.517 C 93.716 36.559 93.663 36.597 93.594 36.626 C 93.523 36.657 93.436 36.662 93.327 36.643 C 93.267 36.574 93.233 36.502 93.225 36.428 C 93.218 36.354 93.218 36.278 93.225 36.2 C 93.233 36.121 93.24 36.04 93.247 35.957 C 93.256 35.875 93.244 35.788 93.214 35.699 C 93.153 35.286 93.033 34.882 92.855 34.486 C 92.679 34.087 92.561 33.687 92.498 33.284 C 92.407 32.911 92.283 32.541 92.131 32.173 C 91.977 31.805 91.823 31.435 91.668 31.06 C 91.514 30.688 91.374 30.317 91.242 29.949 C 91.112 29.581 91.016 29.21 90.955 28.837 C 90.985 28.788 90.997 28.732 90.99 28.669 C 90.981 28.605 90.978 28.543 90.978 28.484 C 90.978 28.424 90.99 28.366 91.013 28.308 C 91.035 28.249 91.093 28.205 91.185 28.175 C 91.278 28.175 91.362 28.195 91.438 28.234 C 91.514 28.273 91.581 28.309 91.634 28.343 C 91.688 28.38 91.738 28.399 91.784 28.404 C 91.83 28.409 91.868 28.375 91.899 28.308 C 91.899 27.728 91.83 27.166 91.692 26.621 C 91.554 26.076 91.423 25.514 91.301 24.936 C 91.177 25.446 91.049 25.951 90.921 26.452 C 90.79 26.953 90.601 27.458 90.355 27.969 C 90.11 28.44 89.925 28.911 89.802 29.382 C 89.679 29.855 89.586 30.326 89.526 30.796 C 89.465 31.032 89.452 31.255 89.492 31.467 C 89.529 31.677 89.579 31.9 89.641 32.136 C 89.672 32.185 89.672 32.244 89.641 32.312 C 89.61 32.381 89.561 32.443 89.492 32.497 C 89.423 32.551 89.33 32.589 89.214 32.615 C 89.099 32.639 88.964 32.638 88.81 32.606 C 88.657 32.54 88.546 32.46 88.477 32.371 C 88.407 32.284 88.358 32.187 88.327 32.085 C 88.296 31.981 88.277 31.878 88.27 31.776 C 88.261 31.672 88.243 31.566 88.21 31.459 C 88.21 31.361 88.169 31.327 88.085 31.364 C 88 31.398 87.927 31.43 87.864 31.459 C 87.621 31.566 87.375 31.57 87.129 31.467 C 86.882 31.364 86.728 31.229 86.667 31.06 C 86.544 30.825 86.491 30.59 86.506 30.355 C 86.521 30.12 86.564 29.884 86.633 29.649 C 86.702 29.41 86.779 29.175 86.864 28.94 C 86.947 28.705 87.006 28.47 87.036 28.234 C 86.728 27.889 86.475 27.527 86.276 27.144 C 86.076 26.76 85.852 26.384 85.606 26.01 C 85.454 25.843 85.346 25.674 85.284 25.502 C 85.223 25.331 85.174 25.156 85.135 24.98 C 85.097 24.802 85.054 24.626 85.007 24.45 C 84.962 24.273 84.886 24.101 84.777 23.934 L 84.777 26.688 C 84.839 27.434 84.854 28.198 84.824 28.977 C 84.792 29.757 84.655 30.521 84.408 31.267 C 84.408 31.335 84.393 31.406 84.363 31.48 C 84.331 31.554 84.282 31.62 84.213 31.679 C 84.143 31.739 84.06 31.781 83.959 31.805 C 83.859 31.829 83.732 31.826 83.578 31.797 C 83.549 31.963 83.543 32.129 83.568 32.291 C 83.591 32.452 83.613 32.615 83.637 32.776 C 83.659 32.938 83.671 33.1 83.671 33.263 C 83.671 33.425 83.641 33.59 83.578 33.756 C 83.517 33.854 83.402 33.883 83.233 33.843 C 83.063 33.805 82.941 33.751 82.864 33.682 C 82.695 34.055 82.599 34.42 82.576 34.779 C 82.552 35.137 82.458 35.487 82.287 35.833 C 82.258 35.881 82.23 35.938 82.207 36.001 C 82.185 36.065 82.157 36.121 82.126 36.172 C 82.096 36.22 82.046 36.259 81.977 36.289 C 81.909 36.317 81.811 36.322 81.688 36.304 C 81.505 36.195 81.439 36.081 81.492 35.957 C 81.547 35.834 81.574 35.704 81.574 35.566 C 81.635 35.262 81.678 34.947 81.7 34.625 C 81.723 34.3 81.796 33.986 81.919 33.682 C 81.982 33.486 82.084 33.297 82.23 33.116 C 82.377 32.933 82.396 32.74 82.287 32.534 C 82.042 32.503 81.842 32.443 81.688 32.349 C 81.535 32.255 81.457 32.141 81.457 32.003 C 81.427 31.787 81.385 31.549 81.331 31.289 C 81.278 31.029 81.239 30.767 81.216 30.501 C 81.193 30.235 81.197 29.979 81.227 29.729 C 81.258 29.477 81.334 29.249 81.457 29.043 C 81.489 28.926 81.608 28.891 81.815 28.94 C 82.023 28.99 82.237 29.051 82.461 29.124 C 82.683 29.198 82.872 29.252 83.026 29.287 C 83.18 29.321 83.21 29.26 83.118 29.102 C 83.347 27.63 83.347 26.152 83.118 24.67 C 82.994 24.641 82.884 24.591 82.784 24.524 C 82.683 24.455 82.633 24.371 82.633 24.273 C 82.51 23.9 82.483 23.523 82.552 23.139 C 82.622 22.755 82.811 22.393 83.118 22.049 C 83.149 21.98 83.206 21.916 83.291 21.858 C 83.376 21.8 83.471 21.749 83.578 21.709 C 83.686 21.671 83.802 21.649 83.924 21.644 C 84.047 21.639 84.17 21.662 84.293 21.709 C 84.324 21.731 84.347 21.762 84.363 21.807 C 84.378 21.85 84.393 21.887 84.408 21.916 C 84.424 21.946 84.443 21.958 84.467 21.953 C 84.489 21.949 84.517 21.911 84.547 21.843 C 84.715 21.774 84.873 21.789 85.019 21.887 C 85.165 21.984 85.239 22.084 85.239 22.181 C 85.361 22.044 85.472 21.922 85.571 21.813 C 85.673 21.704 85.723 21.583 85.723 21.446 C 85.661 21.337 85.615 21.231 85.583 21.129 C 85.553 21.026 85.6 20.906 85.723 20.768 C 85.907 20.571 86.121 20.356 86.368 20.12 C 86.613 19.885 86.913 19.697 87.267 19.561 C 87.359 19.531 87.428 19.527 87.474 19.545 C 87.521 19.565 87.55 19.598 87.566 19.643 C 87.581 19.685 87.581 19.74 87.566 19.804 C 87.55 19.868 87.528 19.924 87.497 19.972 C 87.435 20.139 87.343 20.307 87.221 20.474 C 87.097 20.641 86.971 20.81 86.841 20.982 C 86.71 21.152 86.602 21.329 86.517 21.503 C 86.434 21.681 86.406 21.863 86.436 22.049 C 86.499 22.255 86.584 22.454 86.69 22.645 C 86.798 22.838 86.913 23.03 87.036 23.227 C 87.158 23.424 87.286 23.618 87.417 23.809 C 87.547 24 87.659 24.199 87.75 24.405 C 87.935 24.759 88.032 25.113 88.038 25.473 C 88.047 25.832 88.029 26.192 87.98 26.554 C 87.935 26.918 87.889 27.279 87.843 27.637 C 87.798 27.996 87.804 28.352 87.864 28.705 C 87.943 28.528 88.05 28.374 88.188 28.241 C 88.327 28.108 88.457 27.946 88.581 27.756 C 88.704 27.563 88.815 27.32 88.915 27.027 C 89.016 26.731 89.073 26.329 89.088 25.819 C 89.212 25.436 89.349 25.033 89.503 24.611 C 89.656 24.19 89.83 23.765 90.022 23.338 C 90.214 22.912 90.416 22.491 90.631 22.079 C 90.846 21.667 91.07 21.273 91.301 20.901 C 91.454 20.705 91.566 20.501 91.634 20.29 C 91.704 20.079 91.754 19.868 91.784 19.656 C 91.815 19.445 91.834 19.23 91.842 19.008 C 91.85 18.788 91.868 18.569 91.899 18.353 C 91.931 18.255 91.969 18.15 92.014 18.036 C 92.06 17.924 92.131 17.82 92.222 17.727 C 92.316 17.635 92.43 17.558 92.568 17.499 C 92.707 17.441 92.883 17.411 93.098 17.411 Z" style=""/>
  <path d="M 98.201 26.06 C 98.337 26.06 98.45 26.093 98.535 26.159 C 98.62 26.223 98.646 26.343 98.612 26.518 C 98.612 26.663 98.705 26.793 98.893 26.904 C 99.081 27.018 99.288 27.125 99.516 27.231 C 99.743 27.338 99.961 27.446 100.173 27.558 C 100.383 27.671 100.505 27.796 100.539 27.934 C 100.562 28.051 100.541 28.198 100.478 28.375 C 100.417 28.554 100.35 28.727 100.282 28.893 C 100.191 29.089 100.095 29.297 99.991 29.514 C 100.128 29.602 100.208 29.709 100.232 29.836 C 100.254 29.964 100.24 30.105 100.19 30.266 C 100.138 30.425 100.067 30.592 99.977 30.768 C 99.885 30.941 99.793 31.119 99.703 31.302 C 99.577 31.628 99.393 31.865 99.147 32.01 C 98.904 32.155 98.68 32.227 98.473 32.227 C 98.349 32.227 98.258 32.173 98.201 32.064 C 98.144 31.955 98.077 31.834 97.998 31.704 C 97.917 31.575 97.801 31.458 97.648 31.355 C 97.493 31.254 97.263 31.214 96.958 31.236 C 96.592 31.243 96.331 31.199 96.172 31.106 C 96.013 31.01 95.894 30.874 95.813 30.691 C 95.736 30.509 95.672 30.293 95.627 30.043 C 95.582 29.792 95.502 29.514 95.387 29.208 C 95.33 29.027 95.226 28.839 95.072 28.642 C 94.918 28.447 94.81 28.255 94.748 28.065 C 94.686 27.875 94.711 27.689 94.824 27.504 C 94.938 27.318 95.234 27.147 95.713 26.987 C 96.03 26.863 96.338 26.758 96.632 26.671 C 96.929 26.582 97.195 26.471 97.434 26.333 C 97.707 26.15 97.963 26.06 98.201 26.06 Z M 98.473 27.814 C 98.406 27.814 98.342 27.845 98.279 27.907 C 98.217 27.969 98.154 28.043 98.091 28.125 C 98.028 28.208 97.965 28.291 97.902 28.375 C 97.841 28.459 97.772 28.521 97.699 28.561 C 97.625 28.601 97.546 28.61 97.461 28.589 C 97.376 28.566 97.281 28.49 97.178 28.359 C 97.086 28.265 97.036 28.257 97.024 28.337 C 97.014 28.417 97.024 28.536 97.058 28.692 C 97.093 28.847 97.132 29.017 97.178 29.198 C 97.223 29.38 97.263 29.522 97.297 29.622 C 97.331 29.724 97.345 29.847 97.339 29.988 C 97.334 30.131 97.338 30.264 97.349 30.391 C 97.36 30.52 97.4 30.624 97.469 30.707 C 97.537 30.791 97.667 30.825 97.861 30.811 C 98.304 30.811 98.588 30.685 98.713 30.436 C 98.84 30.184 98.713 29.838 98.338 29.393 C 98.269 29.315 98.247 29.226 98.269 29.127 C 98.293 29.03 98.336 28.928 98.398 28.829 C 98.461 28.727 98.528 28.627 98.602 28.528 C 98.675 28.43 98.733 28.337 98.773 28.25 C 98.813 28.163 98.818 28.088 98.79 28.021 C 98.763 27.956 98.68 27.905 98.542 27.869 C 98.542 27.832 98.519 27.814 98.473 27.814 Z" style=""/>
  <path d="M 102.188 22.279 C 102.234 22.483 102.273 22.689 102.308 22.901 C 102.342 23.111 102.38 23.315 102.418 23.51 C 102.458 23.706 102.507 23.886 102.563 24.05 C 102.621 24.212 102.695 24.349 102.785 24.458 C 102.876 24.211 103.022 23.936 103.221 23.635 C 103.42 23.334 103.758 22.991 104.234 22.605 C 104.315 22.649 104.381 22.701 104.431 22.759 C 104.482 22.816 104.541 22.867 104.61 22.912 C 104.678 22.954 104.773 22.984 104.891 22.998 C 105.012 23.012 105.189 22.991 105.429 22.933 C 105.532 22.941 105.628 22.954 105.72 22.977 C 105.901 23.012 106.06 23.07 106.197 23.15 C 106.253 23.23 106.278 23.321 106.273 23.423 C 106.268 23.525 106.249 23.619 106.213 23.706 C 106.168 23.809 106.105 23.914 106.026 24.022 C 106.197 24.269 106.387 24.515 106.598 24.757 C 106.807 25.002 106.956 25.244 107.041 25.489 C 107.126 25.731 107.107 25.971 106.981 26.207 C 106.856 26.444 106.538 26.678 106.026 26.909 L 104.064 27.945 C 104.303 28.12 104.534 28.295 104.756 28.474 C 104.976 28.651 105.158 28.829 105.301 29.003 C 105.444 29.178 105.52 29.35 105.531 29.519 C 105.542 29.69 105.452 29.856 105.257 30.016 C 105.44 30.161 105.606 30.299 105.754 30.429 C 105.878 30.545 106.001 30.671 106.121 30.801 C 106.239 30.93 106.322 31.05 106.367 31.16 C 106.413 31.269 106.425 31.396 106.402 31.542 C 106.379 31.686 106.35 31.84 106.317 32.005 C 106.282 32.168 106.249 32.336 106.213 32.511 C 106.18 32.686 106.173 32.852 106.197 33.012 C 106.219 33.179 106.262 33.333 106.324 33.476 C 106.388 33.617 106.449 33.753 106.512 33.884 C 106.575 34.015 106.629 34.138 106.675 34.254 C 106.719 34.371 106.731 34.484 106.708 34.591 C 106.662 34.716 106.6 34.802 106.52 34.849 C 106.441 34.895 106.356 34.927 106.266 34.94 C 106.162 34.954 106.054 34.947 105.94 34.919 L 105.257 31.922 C 105.257 31.938 105.224 31.909 105.157 31.84 C 105.089 31.772 104.999 31.677 104.891 31.556 C 104.784 31.437 104.665 31.302 104.534 31.148 C 104.402 30.996 104.274 30.837 104.149 30.671 C 104.058 30.532 103.971 30.399 103.885 30.271 C 103.8 30.144 103.724 30.028 103.655 29.924 C 103.586 29.817 103.533 29.727 103.494 29.651 C 103.453 29.575 103.444 29.514 103.466 29.471 C 103.49 29.252 103.488 29.06 103.459 28.893 C 103.43 28.727 103.399 28.583 103.365 28.468 C 103.319 28.337 103.269 28.217 103.212 28.108 L 102.699 30.723 C 102.699 30.957 102.692 31.2 102.674 31.453 C 102.658 31.709 102.623 31.934 102.572 32.13 C 102.52 32.325 102.445 32.474 102.342 32.576 C 102.239 32.679 102.103 32.696 101.93 32.631 L 101.762 31.214 L 102.019 29.743 C 101.756 29.62 101.612 29.467 101.582 29.285 C 101.555 29.104 101.568 28.912 101.626 28.713 C 101.682 28.514 101.753 28.314 101.84 28.113 C 101.924 27.915 101.956 27.73 101.93 27.563 C 101.716 27.396 101.573 27.159 101.504 26.851 C 101.437 26.541 101.468 26.18 101.591 25.766 C 101.694 25.387 101.76 24.992 101.789 24.578 C 101.817 24.164 101.836 23.787 101.847 23.452 C 101.858 23.113 101.878 22.833 101.907 22.61 C 101.934 22.39 101.999 22.279 102.103 22.279 L 102.188 22.279 Z M 104.575 24.458 C 104.485 24.458 104.386 24.489 104.277 24.551 C 104.17 24.612 104.07 24.672 103.978 24.731 C 103.889 24.789 103.829 24.847 103.8 24.905 C 103.771 24.963 103.748 25.025 103.733 25.089 C 103.715 25.156 103.697 25.223 103.681 25.292 C 103.662 25.36 103.621 25.428 103.553 25.494 C 103.53 25.537 103.483 25.573 103.409 25.604 C 103.334 25.63 103.261 25.658 103.195 25.685 C 103.127 25.709 103.072 25.737 103.031 25.766 C 102.992 25.794 102.995 25.832 103.041 25.874 C 103.087 25.919 103.158 25.976 103.254 26.043 C 103.35 26.114 103.45 26.195 103.553 26.288 C 103.655 26.384 103.755 26.483 103.851 26.589 C 103.948 26.693 104.018 26.802 104.064 26.909 C 104.086 26.975 104.135 26.977 104.21 26.914 C 104.282 26.854 104.36 26.764 104.44 26.649 C 104.52 26.533 104.591 26.408 104.654 26.278 C 104.715 26.147 104.746 26.049 104.746 25.984 C 104.746 25.933 104.723 25.881 104.678 25.825 C 104.632 25.771 104.589 25.715 104.543 25.662 C 104.497 25.608 104.458 25.553 104.423 25.498 C 104.389 25.443 104.383 25.387 104.405 25.331 C 104.428 25.25 104.48 25.181 104.558 25.123 C 104.638 25.065 104.715 25.01 104.789 24.96 C 104.863 24.91 104.919 24.856 104.959 24.801 C 104.999 24.748 104.985 24.687 104.917 24.622 C 104.872 24.563 104.826 24.522 104.781 24.497 C 104.736 24.471 104.667 24.458 104.575 24.458 Z" style=""/>
  <path d="M 113.187 20.7 C 113.379 20.824 113.453 20.975 113.409 21.156 C 113.362 21.338 113.277 21.531 113.151 21.734 C 113.026 21.938 112.904 22.144 112.785 22.356 C 112.665 22.566 112.629 22.759 112.674 22.933 C 112.696 23.013 112.73 23.069 112.776 23.101 C 112.822 23.134 112.874 23.159 112.931 23.179 C 112.987 23.196 113.037 23.222 113.083 23.255 C 113.128 23.287 113.163 23.343 113.187 23.423 C 113.208 23.503 113.192 23.596 113.135 23.7 C 113.077 23.806 113.018 23.917 112.955 24.034 C 112.892 24.15 112.842 24.268 112.802 24.388 C 112.761 24.508 112.777 24.622 112.846 24.731 C 112.925 24.883 112.934 25.049 112.879 25.226 C 112.822 25.404 112.744 25.573 112.648 25.733 C 112.552 25.893 112.463 26.031 112.383 26.147 C 112.303 26.263 112.287 26.337 112.334 26.364 C 112.435 26.423 112.549 26.444 112.674 26.424 C 112.799 26.407 112.916 26.379 113.024 26.343 C 113.132 26.307 113.231 26.271 113.323 26.235 C 113.414 26.198 113.482 26.186 113.526 26.202 C 113.585 26.246 113.621 26.292 113.638 26.343 C 113.655 26.395 113.651 26.442 113.628 26.485 C 113.607 26.535 113.572 26.587 113.526 26.637 C 113.482 26.718 113.506 26.749 113.604 26.73 C 113.7 26.713 113.835 26.691 114.012 26.671 C 114.189 26.649 114.392 26.645 114.618 26.66 C 114.845 26.674 115.079 26.758 115.318 26.909 C 115.534 27.048 115.731 27.148 115.906 27.21 C 116.083 27.271 116.208 27.325 116.282 27.373 C 116.355 27.42 116.362 27.474 116.299 27.537 C 116.236 27.597 116.078 27.699 115.83 27.836 C 115.874 28.068 115.853 28.225 115.761 28.303 C 115.67 28.384 115.543 28.412 115.377 28.386 C 115.212 28.361 115.026 28.297 114.814 28.197 C 114.604 28.094 114.402 27.974 114.21 27.836 C 114.05 28.004 113.864 28.075 113.655 28.054 C 113.444 28.033 113.242 27.979 113.049 27.89 C 112.822 27.789 112.584 27.643 112.334 27.455 C 112.39 27.803 112.412 28.123 112.401 28.414 C 112.39 28.668 112.349 28.91 112.28 29.14 C 112.214 29.368 112.089 29.514 111.906 29.58 C 111.906 29.717 111.927 29.851 111.965 29.978 C 112.006 30.104 112.043 30.224 112.078 30.338 C 112.111 30.449 112.125 30.553 112.12 30.647 C 112.114 30.742 112.071 30.821 111.991 30.888 C 111.832 31.062 111.723 31.206 111.667 31.323 C 111.61 31.44 111.577 31.544 111.566 31.64 C 111.554 31.734 111.551 31.828 111.556 31.922 C 111.563 32.016 111.545 32.125 111.505 32.244 C 111.465 32.364 111.395 32.506 111.292 32.668 C 111.19 32.833 111.026 33.038 110.798 33.284 C 110.673 33.168 110.588 33.079 110.542 33.017 C 110.496 32.957 110.476 32.905 110.483 32.864 C 110.488 32.825 110.508 32.784 110.542 32.744 C 110.575 32.704 110.615 32.649 110.661 32.576 C 110.707 32.503 110.743 32.405 110.771 32.277 C 110.799 32.15 110.808 31.977 110.798 31.759 C 110.798 31.635 110.809 31.506 110.832 31.372 C 110.854 31.238 110.874 31.106 110.89 30.974 C 110.908 30.844 110.914 30.714 110.909 30.586 C 110.903 30.46 110.866 30.343 110.798 30.233 C 110.729 30.125 110.665 30.021 110.601 29.924 C 110.538 29.824 110.506 29.724 110.499 29.622 C 110.494 29.522 110.522 29.415 110.585 29.302 C 110.648 29.19 110.775 29.064 110.969 28.926 C 111.07 28.845 111.142 28.756 111.183 28.658 C 111.221 28.561 111.24 28.452 111.24 28.332 C 111.24 28.211 111.229 28.079 111.206 27.934 C 111.184 27.789 111.16 27.63 111.139 27.455 C 111.116 27.412 111.047 27.385 110.935 27.378 C 110.821 27.372 110.695 27.362 110.559 27.351 C 110.422 27.34 110.289 27.32 110.158 27.292 C 110.026 27.263 109.928 27.208 109.86 27.127 C 109.837 27.078 109.766 27.037 109.647 27.007 C 109.527 26.98 109.405 26.955 109.279 26.938 C 109.153 26.918 109.043 26.898 108.947 26.872 C 108.849 26.845 108.814 26.805 108.836 26.747 C 108.836 26.667 108.878 26.576 108.964 26.475 C 109.05 26.373 109.179 26.337 109.347 26.364 C 109.496 26.408 109.606 26.427 109.68 26.419 C 109.753 26.412 109.814 26.393 109.86 26.36 C 109.904 26.327 109.942 26.291 109.971 26.252 C 110 26.211 110.047 26.177 110.116 26.147 C 110.241 26.118 110.396 26.095 110.585 26.076 C 110.772 26.058 110.929 26.01 111.054 25.93 C 111.133 25.863 111.155 25.835 111.121 25.842 C 111.087 25.85 111.045 25.858 110.994 25.869 C 110.943 25.882 110.908 25.873 110.89 25.847 C 110.874 25.822 110.929 25.741 111.054 25.604 C 111.099 25.466 111.137 25.314 111.164 25.156 C 111.193 24.996 111.227 24.824 111.268 24.638 C 111.305 24.453 111.362 24.258 111.436 24.055 C 111.511 23.851 111.612 23.641 111.736 23.423 C 111.736 23.053 111.81 22.704 111.958 22.376 C 112.105 22.049 112.271 21.76 112.452 21.504 C 112.657 21.215 112.902 20.945 113.187 20.7 Z" style=""/>
  <path d="M 114.108 21.126 C 114.658 21.608 115.149 22.088 115.585 22.566 C 116.02 23.045 116.514 23.522 117.063 23.992 C 117.366 24.084 117.592 24.205 117.743 24.356 C 117.895 24.506 118.012 24.665 118.098 24.83 C 118.184 24.997 118.256 25.164 118.312 25.337 C 118.368 25.506 118.452 25.662 118.567 25.804 C 118.872 25.954 119.125 26.116 119.334 26.287 C 119.543 26.458 119.675 26.659 119.731 26.89 C 119.751 26.95 119.8 26.959 119.874 26.913 C 119.95 26.868 120.031 26.804 120.115 26.725 C 120.201 26.644 120.287 26.561 120.371 26.476 C 120.457 26.39 120.528 26.332 120.583 26.301 C 120.867 26.252 121.128 26.156 121.365 26.016 C 121.603 25.873 121.701 25.708 121.664 25.515 C 121.986 25.274 122.356 25.026 122.773 24.771 C 123.188 24.514 123.596 24.26 123.993 24.009 C 124.05 24.178 124.046 24.34 123.979 24.49 C 123.914 24.642 123.819 24.787 123.696 24.928 C 123.571 25.07 123.434 25.214 123.284 25.359 C 123.131 25.505 122.99 25.657 122.858 25.819 C 122.743 26.029 122.62 26.249 122.489 26.476 C 122.356 26.702 122.147 26.895 121.863 27.057 C 121.842 27.167 121.777 27.281 121.664 27.396 C 121.55 27.51 121.504 27.65 121.522 27.812 C 121.484 27.951 121.386 28.085 121.223 28.211 C 121.062 28.336 120.897 28.459 120.726 28.58 C 120.556 28.701 120.393 28.828 120.243 28.96 C 120.093 29.088 119.996 29.225 119.959 29.365 C 119.922 29.566 119.841 29.762 119.719 29.953 C 119.594 30.145 119.409 30.297 119.164 30.407 C 118.956 30.558 118.86 30.698 118.88 30.829 C 118.899 30.96 118.872 31.152 118.795 31.402 L 117.376 34.663 C 117.299 34.803 117.143 34.973 116.905 35.168 C 116.668 35.364 116.399 35.562 116.097 35.764 C 115.792 35.965 115.48 36.153 115.158 36.33 C 114.837 36.506 114.549 36.643 114.292 36.737 C 114.035 36.833 113.842 36.879 113.708 36.873 C 113.577 36.868 113.558 36.781 113.652 36.61 C 113.767 36.397 113.903 36.189 114.063 35.984 C 114.224 35.777 114.386 35.572 114.546 35.372 C 114.708 35.171 114.861 34.964 115.001 34.752 C 115.146 34.542 115.243 34.325 115.301 34.103 C 115.358 33.993 115.433 33.903 115.526 33.832 C 115.624 33.762 115.712 33.697 115.796 33.637 C 115.881 33.576 115.94 33.516 115.968 33.455 C 115.996 33.395 115.973 33.319 115.898 33.229 C 115.84 33.118 115.864 33.012 115.968 32.911 C 116.07 32.81 116.2 32.71 116.351 32.611 C 116.502 32.508 116.649 32.41 116.793 32.307 C 116.933 32.208 117.014 32.096 117.034 31.977 C 117.034 31.897 116.974 31.828 116.862 31.773 C 116.749 31.717 116.644 31.66 116.548 31.6 C 116.455 31.539 116.393 31.471 116.365 31.395 C 116.337 31.32 116.408 31.223 116.578 31.102 C 116.655 31.032 116.738 30.965 116.834 30.906 C 116.927 30.844 116.994 30.781 117.034 30.717 C 117.072 30.65 117.063 30.58 117.005 30.505 C 116.949 30.43 116.806 30.342 116.578 30.241 C 116.408 30.191 116.355 30.128 116.423 30.053 C 116.49 29.978 116.612 29.896 116.793 29.811 C 116.971 29.724 117.171 29.638 117.389 29.546 C 117.605 29.456 117.762 29.365 117.856 29.275 C 117.971 29.145 118.018 28.999 117.999 28.837 C 117.979 28.676 117.933 28.513 117.856 28.346 C 117.781 28.181 117.711 28.015 117.643 27.85 C 117.577 27.681 117.563 27.519 117.601 27.359 C 117.639 27.299 117.626 27.27 117.559 27.275 C 117.493 27.28 117.411 27.294 117.317 27.311 C 117.224 27.332 117.123 27.344 117.02 27.344 C 116.915 27.344 116.844 27.308 116.807 27.238 C 116.844 27.035 116.806 26.82 116.691 26.589 C 116.578 26.357 116.408 26.162 116.181 26.001 C 115.821 25.737 115.526 25.467 115.301 25.185 C 115.073 24.903 114.884 24.616 114.733 24.324 C 114.599 24.062 114.472 23.804 114.348 23.549 C 114.224 23.291 114.295 23.062 114.559 22.861 C 114.524 22.629 114.42 22.383 114.251 22.121 C 114.079 21.859 113.927 21.6 113.794 21.337 C 113.832 21.286 113.842 21.22 113.824 21.141 C 113.805 21.06 113.833 21.015 113.908 21.004 L 114.108 21.126 Z" style=""/>
</svg>